PathFileType	4	(X/Y/Z)	C:/Users/beibeiliu/ov580/test_trc/User3\sequence.5_training_dense_left.trc
DataRate	CameraRate	NumFrames	NumMarkers	Units	OrigDataRate	OrigDataStartFrame	OrigNumFrames
120	120	17	19	mm	120	1	119
Frame#	Time	ThumbCMC			ThumbMCP			ThumbIP			ThumbTip			IndexMCP			IndexPIP			IndexTip			MiddleMCP			MiddlePIP			MiddleTip			RingMCP			RingPIP			RingTip			PinkyMCP			PinkyPIP			PinkyTip			BackHand1			BackHand2			BackHand3	
		X0	Y0	Z0	X1	Y1	Z1	X2	Y2	Z2	X3	Y3	Z3	X4	Y4	Z4	X5	Y5	Z5	X6	Y6	Z6	X7	Y7	Z7	X8	Y8	Z8	X9	Y9	Z9	X10	Y10	Z10	X11	Y11	Z11	X12	Y12	Z12	X13	Y13	Z13	X14	Y14	Z14	X15	Y15	Z15	X16	Y16	Z16	X17	Y17	Z17	X18	Y18	Z18	
0	0	-254.799	-4.17642	30.4577	-263.014	6.86893	5.47453	-276.377	27.5728	-11.1573	-287.226	41.8785	-28.3712	-292.032	-26.1476	-29.5694	-264.052	-15.6517	-43.1658	-255.313	-16.45	-6.94351	-285.575	-42.8952	-35.1186	-255.234	-33.3681	-43.7204	-250.571	-35.5961	-4.33226	-274.356	-57.0682	-34.1072	-247.473	-47.9085	-39.6475	-239.275	-43.5666	-6.29175	-264.18	-75.9296	-30.0731	-242.951	-63.062	-34.4639	-236.346	-53.7183	-5.33609	-282.03	-68.773	22.8058	-257.405	-67.3054	51.0947	-277.084	-36.3812	39.6264	
1	0.00833333	-242.255	7.14288	23.2855	-246.389	22.2867	-0.58695	-253.601	38.37	-20.7496	-257.905	57.9101	-37.4367	-276.691	-7.3862	-38.9144	-243.705	-6.06754	-47.4491	-240.72	-8.21791	-12.5625	-272.052	-23.7607	-44.2013	-242.721	-22.0461	-49.4138	-240.841	-25.9879	-8.11624	-266.21	-45.6663	-39.2113	-237.046	-37.5922	-41.8471	-232.828	-34.3502	-4.26602	-262.326	-60.2688	-31.0676	-232.421	-51.9728	-33.2705	-227.894	-48.7743	-5.87184	-277.724	-51.3542	18.1977	-261.165	-50.757	44.7726	-270.65	-16.9313	30.7619	
2	0.0166667	-227.836	16.919	18.3502	-227.195	29.9525	-5.62227	-230.356	53.002	-30.4842	-228.645	64.1317	-44.0287	-257.185	10.8947	-50.1377	-229.686	2.13531	-54.801	-224.06	3.84508	-21.4894	-261.212	-12.4526	-49.6316	-228.601	-15.0478	-52.8726	-229.196	-14.7365	-13.4984	-258.347	-27.6712	-43.7727	-224.594	-30.7126	-41.6471	-225.464	-28.5427	-8.49298	-255.631	-48.032	-39.04	-226.383	-46.3138	-35.9725	-226.003	-41.7362	-8.04075	-275.461	-34.3652	10.1422	-258.878	-34.9188	37.127	-260.687	-2.82306	24.8165	
3	0.025	-221.335	25.3261	10.1158	-217.193	34.0046	-13.0273	-214.066	53.8601	-34.5023	-208.717	66.7564	-47.928	-246.636	15.2326	-55.6294	-214.793	8.59119	-57.1801	-215.155	2.48307	-27.6313	-251.81	-2.72892	-54.4301	-218.202	-11.9178	-54.7683	-223.346	-12.3003	-17.0001	-248.474	-20.2594	-50.9121	-218.294	-27.9139	-44.7298	-217.572	-23.3742	-14.7114	-251.066	-36.9332	-41.3559	-221.455	-37.8676	-38.8875	-221.126	-36.7661	-8.32738	-272.354	-22.0754	0.0486412	-260.087	-29.3192	30.3232	-256.555	7.92551	16.0271	
4	0.0333333	-212.257	22.4864	10.1077	-205.131	35.9461	-17.6986	-196.012	54.0747	-36.4495	-188.922	66.7891	-52.3275	-236.211	22.7638	-58.1581	-207.333	8.40033	-63.5228	-204.268	7.14042	-29.0192	-238.447	2.41402	-62.7808	-208.888	-9.25367	-54.4804	-214.878	-7.8107	-19.5583	-242.901	-20.735	-52.7913	-211.752	-25.8966	-44.2593	-218.19	-20.4031	-12.2423	-244.582	-37.2179	-46.087	-219.065	-35.3083	-39.6559	-220.018	-33.0835	-8.15373	-270.077	-13.0868	-3.75887	-257.955	-14.9719	25.3515	-249.315	14.1796	10.8589	
5	0.0416667	-203.501	25.3639	4.2039	-191.975	33.7295	-19.0729	-180.781	49.191	-42.9412	-167.772	60.2847	-55.8772	-222.557	25.782	-60.743	-197.183	2.12765	-61.5412	-196.404	5.44538	-30.4887	-230.492	1.42568	-64.2487	-202.375	-11.3567	-58.4478	-211.519	-8.62271	-21.325	-236.864	-17.3556	-55.0573	-209.365	-28.8203	-43.6804	-214.271	-20.7389	-14.3573	-241.515	-30.0894	-47.8719	-216.959	-35.0866	-40.3664	-220.816	-30.3486	-9.57134	-261.827	-0.382669	-4.95021	-254.687	-7.65922	23.4887	-238.177	24.2047	8.00078	
6	0.05	-192.74	27.6916	3.61445	-177.952	32.8715	-19.923	-164.574	39.6339	-39.8949	-151.873	48.7484	-56.3568	-211.02	20.541	-65.806	-187.906	2.79187	-64.1997	-192.07	2.29405	-30.8993	-222.707	2.72534	-66.5576	-197.815	-12.6339	-60.8838	-206.81	-5.18663	-20.5516	-231.251	-8.37404	-55.7999	-207.948	-27.5997	-46.0011	-211.405	-13.2323	-13.0283	-239.332	-27.4176	-48.6214	-214.883	-34.2931	-34.0026	-221.712	-24.5636	-8.04124	-253.867	9.06899	-8.63576	-252.334	1.33172	22.2436	-232.228	29.0202	6.65666	
7	0.0583333	-186.103	24.8972	7.10873	-170.448	25.675	-17.7861	-152.109	34.9338	-42.4154	-137.45	38.1546	-55.2114	-203.695	21.1426	-67.4215	-183.42	-3.67214	-60.6592	-190.24	-0.828366	-31.1098	-217.46	5.30798	-68.0526	-198.115	-15.9793	-60.4527	-204.813	-0.483422	-21.0655	-228.493	-5.74948	-58.1839	-211.9	-29.1065	-45.1691	-213.201	-15.4348	-15.6538	-238.572	-22.8485	-50.9267	-219.089	-32.2273	-36.5199	-225.642	-16.9355	-7.67959	-254.241	15.0956	-11.2418	-250.49	11.646	17.9214	-223.276	36.7593	3.2238	
8	0.0666667	-183.55	18.9876	3.60747	-168.181	17.185	-20.9563	-151.321	20.3379	-41.7932	-133.769	23.6179	-59.8382	-201.091	19.4251	-66.8131	-186.044	-11.3888	-61.1203	-189.048	0.290066	-29.3049	-217.916	7.35509	-67.4661	-203.411	-22.0368	-57.3553	-207.376	-5.1722	-23.3091	-230.808	-6.84662	-59.7664	-217.002	-30.2463	-46.412	-214.103	-12.5109	-16.2727	-246.366	-17.1887	-49.4771	-225.405	-31.7703	-37.1691	-229.254	-16.2169	-8.4886	-249.288	22.3453	-14.0835	-248.867	16.3925	19.6105	-218.259	34.3572	2.43898	
9	0.075	-184.604	11.1428	5.36318	-163.895	7.45555	-19.208	-146.108	7.58851	-38.2347	-135.646	4.17519	-57.3884	-198.573	12.4916	-67.6064	-192.422	-18.0038	-65.5545	-193.476	-10.6526	-30.9078	-216.418	2.87835	-68.9644	-204.975	-25.7463	-59.1299	-208.986	-9.16225	-24.1671	-230.48	-6.50466	-60.9256	-224.915	-33.2403	-47.8041	-219.46	-16.7748	-17.1433	-247.841	-11.1336	-48.7811	-232.059	-32.4665	-34.4869	-232.342	-15.2054	-10.8706	-249.534	25.2382	-13.7204	-247.549	22.2998	15.5177	-213.284	33.1711	2.63082	
10	0.0833333	-181.891	3.52375	3.48033	-166.443	-5.41157	-18.5713	-148.377	-9.91917	-40.7071	-133.997	-14.7431	-58.5249	-200.897	1.88593	-67.8594	-194.474	-27.5908	-63.662	-197.418	-16.7907	-30.1476	-218.587	-5.45096	-69.279	-211.813	-32.4909	-58.3438	-215.403	-14.8153	-23.8959	-239.319	-10.6126	-58.1259	-231.011	-36.6716	-46.2386	-222.196	-19.2892	-15.5233	-250.731	-11.8397	-48.0796	-237.994	-34.8571	-34.2906	-235.955	-16.6782	-10.9788	-245.785	26.0418	-14.0293	-243.599	23.1514	13.8049	-211.025	29.4264	0.606658	
11	0.0916667	-185.171	-5.58634	6.28936	-164.842	-16.4088	-15.7568	-148.386	-23.3326	-37.9198	-139.829	-30.651	-56.1691	-199.66	-7.20047	-68.2255	-197.867	-37.3912	-60.5479	-198.755	-27.5689	-31.2594	-219.7	-10.0504	-67.052	-217.814	-40.6776	-54.5485	-215.699	-16.8141	-21.0472	-239.495	-13.0619	-56.6468	-232.057	-40.7764	-45.4904	-227.104	-26.2589	-14.7956	-249.219	-18.5621	-49.2409	-241.758	-37.4535	-34.9571	-239.656	-18.3423	-7.78935	-242.773	25.5453	-16.5372	-243.167	23.1658	15.4258	-205.138	22.4744	-2.34835	
12	0.1	-185.042	-8.87284	2.61929	-170.916	-23.2168	-17.1751	-148.775	-32.5273	-36.258	-136.818	-40.086	-52.8946	-199.163	-15.6676	-68.1469	-196.978	-44.8755	-59.1419	-197.937	-34.3587	-29.7066	-218.071	-18.7541	-66.7685	-218.391	-46.8251	-50.6152	-217.126	-25.3973	-20.2743	-241.162	-20.4374	-56.4132	-231.331	-46.7264	-40.2637	-226.548	-28.6312	-13.1939	-254.842	-21.3561	-45.9298	-244.865	-42.6416	-32.3175	-238.172	-21.2388	-6.76244	-237.611	19.3916	-18.5676	-239.335	19.4338	17.0143	-206.328	17.6118	-0.441929	
13	0.108333	-183.733	-13.7746	7.54836	-166.063	-26.6595	-15.797	-148.317	-35.4136	-36.6757	-136.92	-45.2014	-53.0489	-203.301	-17.1833	-64.7638	-199.972	-49.3307	-59.6246	-198.928	-35.2853	-25.7668	-220.471	-25.0673	-66.5427	-216.668	-51.5559	-49.1029	-214.799	-29.5362	-19.0697	-238.559	-27.1582	-55.7301	-234.29	-50.7637	-40.5469	-226.301	-33.6742	-12.3276	-250.728	-28.8499	-46.5479	-242.905	-46.267	-25.9306	-237.705	-25.0376	-6.75695	-239.697	14.7523	-17.8374	-240.262	17.408	15.1155	-207.048	16.4533	2.09895	
14	0.116667	-182.164	-14.492	8.02587	-167.351	-28.0254	-11.4083	-148.682	-37.8204	-32.9882	-138.975	-46.4071	-50.7339	-203.509	-22.3901	-65.1792	-201.304	-51.8949	-56.5154	-199.232	-38.0347	-25.3693	-219.102	-24.9065	-63.6904	-215.474	-53.9458	-49.1784	-216.692	-26.8436	-17.1032	-238.026	-29.122	-54.3364	-233.466	-53.7752	-37.0583	-225.67	-36.5882	-11.9591	-254.596	-33.6256	-44.9947	-245.117	-50.7395	-27.9227	-239.581	-26.2909	-3.29161	-244.176	13.3437	-14.3007	-240.414	12.1482	15.1342	-209.146	13.5321	0.19638	
15	0.125	-182.313	-15.6611	8.11622	-167.62	-28.4512	-14.2858	-147.348	-36.9313	-36.9386	-137.086	-47.1955	-48.1521	-200.221	-21.5955	-63.9425	-196.629	-52.5588	-55.2198	-200.473	-36.625	-22.5497	-221.601	-24.6236	-63.0285	-214.029	-54.8881	-45.9609	-214.534	-30.9433	-16.6173	-239.011	-28.1847	-53.4921	-232.008	-53.7308	-38.3568	-227.038	-35.8583	-10.3713	-254.961	-33.1132	-44.3014	-242.36	-50.1062	-27.8017	-236.795	-28.5359	-4.93188	-241.14	11.6617	-16.6667	-240.478	12.2065	16.396	-206.571	14.6389	-1.79641	
16	0.133333	-181.208	-14.0027	10.1435	-164.743	-26.6574	-16.0413	-148.826	-35.0729	-34.3062	-135.037	-43.2018	-52.7804	-200.185	-17.9174	-62.461	-199.661	-50.413	-52.8545	-198.717	-37.5581	-23.565	-222.26	-22.2196	-61.2341	-217.835	-53.2509	-47.9353	-215.794	-30.8826	-16.7099	-234.701	-27.8545	-53.0611	-232.773	-53.2687	-35.4739	-225.482	-31.615	-7.98265	-252.1	-32.0911	-43.7541	-242.358	-49.3769	-28.2471	-237.428	-30.1293	-5.77065	-241.391	13.2831	-11.6854	-239.28	14.4754	15.5565	-208.177	15.4708	-1.29661	
